<?xml version="1.0" ?><!DOCTYPE svg  PUBLIC '-//W3C//DTD SVG 1.1//EN'  'http://www.w3.org/Graphics/SVG/1.1/DTD/svg11.dtd'><svg enable-background="new 0 0 128 128" id="Слой_1" version="1.1" viewBox="0 0 128 128" xml:space="preserve" xmlns="http://www.w3.org/2000/svg" xmlns:xlink="http://www.w3.org/1999/xlink"><g><g><path d="M117.886,103.055H10.114C5.633,103.055,2,99.422,2,94.941V33.059c0-4.481,3.633-8.114,8.114-8.114h107.771    c4.481,0,8.114,3.633,8.114,8.114v61.881C126,99.422,122.367,103.055,117.886,103.055z" fill="#E7E4DC"/><g><rect fill="#CFC174" height="17.05" width="7.104" x="23.248" y="50.825"/><g><path d="M38.167,52.246c0-0.785-0.636-1.421-1.421-1.421h-4.973v7.815h6.394V52.246z" fill="#CFC174"/><path d="M31.773,67.875h4.973c0.785,0,1.421-0.636,1.421-1.421V60.06h-6.394V67.875z" fill="#CFC174"/><path d="M15.433,66.454c0,0.785,0.636,1.421,1.421,1.421h4.973V60.06h-6.394V66.454z" fill="#CFC174"/><path d="M21.827,50.825h-4.973c-0.785,0-1.421,0.636-1.421,1.421v6.394h6.394V50.825z" fill="#CFC174"/></g></g><g opacity="0.2"><path d="M16.07,78.923v-0.845h-2.28c-0.288,0-0.503-0.065-0.647-0.195c-0.144-0.13-0.216-0.307-0.216-0.531     c0-0.058,0.011-0.116,0.032-0.175c0.021-0.059,0.053-0.121,0.095-0.186c0.042-0.065,0.086-0.128,0.132-0.188     s0.101-0.135,0.168-0.223l2.407-3.22c0.157-0.212,0.287-0.366,0.388-0.461c0.101-0.095,0.223-0.143,0.366-0.143     c0.46,0,0.69,0.263,0.69,0.79v3.515H17.4c0.233,0,0.42,0.032,0.561,0.095s0.211,0.203,0.211,0.418     c0,0.176-0.058,0.303-0.173,0.384c-0.115,0.08-0.288,0.12-0.518,0.12h-0.277v0.845c0,0.233-0.051,0.406-0.154,0.52     c-0.103,0.114-0.241,0.17-0.413,0.17c-0.17,0-0.307-0.058-0.411-0.175C16.122,79.322,16.07,79.15,16.07,78.923z M14.117,77.061     h1.953v-2.638L14.117,77.061z" fill="#050708"/><path d="M20.415,78.428h2.37c0.236,0,0.416,0.048,0.54,0.145c0.124,0.097,0.186,0.229,0.186,0.395     c0,0.148-0.049,0.274-0.148,0.377S23.117,79.5,22.917,79.5h-3.342c-0.227,0-0.404-0.063-0.531-0.188     c-0.127-0.126-0.191-0.273-0.191-0.443c0-0.109,0.041-0.254,0.123-0.434c0.082-0.18,0.171-0.322,0.268-0.425     c0.403-0.418,0.766-0.776,1.09-1.074c0.324-0.298,0.556-0.494,0.695-0.588c0.248-0.176,0.455-0.352,0.62-0.529     c0.165-0.177,0.291-0.359,0.377-0.545c0.086-0.186,0.129-0.369,0.129-0.547c0-0.194-0.046-0.367-0.139-0.52     c-0.092-0.153-0.218-0.272-0.377-0.356c-0.159-0.085-0.332-0.127-0.52-0.127c-0.397,0-0.708,0.174-0.935,0.522     c-0.03,0.045-0.081,0.17-0.152,0.372c-0.071,0.203-0.151,0.359-0.241,0.468c-0.089,0.109-0.22,0.163-0.393,0.163     c-0.151,0-0.277-0.05-0.377-0.15c-0.1-0.1-0.15-0.236-0.15-0.409c0-0.209,0.047-0.427,0.141-0.654s0.234-0.433,0.42-0.618     s0.422-0.334,0.708-0.447c0.286-0.114,0.621-0.17,1.006-0.17c0.463,0,0.858,0.073,1.185,0.218c0.212,0.097,0.398,0.23,0.559,0.4     c0.16,0.17,0.285,0.366,0.375,0.588c0.089,0.223,0.134,0.453,0.134,0.693c0,0.375-0.093,0.717-0.279,1.024     c-0.186,0.307-0.376,0.548-0.57,0.722s-0.518,0.447-0.974,0.82c-0.456,0.372-0.768,0.661-0.938,0.867     C20.565,78.215,20.491,78.313,20.415,78.428z" fill="#050708"/><path d="M25.315,72.906h3.024c0.291,0,0.501,0.045,0.631,0.136c0.13,0.091,0.195,0.241,0.195,0.45     c0,0.127-0.076,0.295-0.229,0.504c-0.153,0.209-0.327,0.44-0.522,0.693c-0.195,0.253-0.397,0.567-0.604,0.942     c-0.207,0.375-0.397,0.834-0.57,1.376c-0.073,0.239-0.124,0.437-0.154,0.595c-0.03,0.157-0.064,0.362-0.1,0.613     c-0.036,0.251-0.068,0.444-0.095,0.577c-0.064,0.309-0.154,0.523-0.27,0.643c-0.117,0.12-0.272,0.179-0.465,0.179     c-0.185,0-0.333-0.064-0.445-0.193s-0.168-0.319-0.168-0.57c0-0.194,0.041-0.457,0.123-0.79s0.215-0.732,0.4-1.197     c0.185-0.465,0.416-0.941,0.693-1.43c0.277-0.489,0.606-0.976,0.988-1.46h-2.429c-0.254,0-0.444-0.046-0.57-0.139     s-0.188-0.237-0.188-0.434c0-0.209,0.067-0.344,0.2-0.404S25.076,72.906,25.315,72.906z" fill="#050708"/><path d="M33.698,73.965h-2.157l-0.259,1.471c0.43-0.23,0.826-0.345,1.19-0.345c0.291,0,0.562,0.054,0.815,0.163     c0.253,0.109,0.475,0.26,0.665,0.452c0.191,0.192,0.341,0.42,0.45,0.683s0.163,0.546,0.163,0.849     c0,0.439-0.098,0.839-0.295,1.199s-0.481,0.646-0.851,0.858s-0.798,0.318-1.283,0.318c-0.542,0-0.982-0.1-1.319-0.3     c-0.338-0.2-0.577-0.429-0.717-0.688s-0.211-0.485-0.211-0.679c0-0.118,0.049-0.23,0.148-0.336s0.222-0.159,0.37-0.159     c0.254,0,0.444,0.147,0.568,0.44c0.121,0.269,0.285,0.479,0.49,0.629c0.206,0.15,0.436,0.225,0.69,0.225     c0.233,0,0.437-0.061,0.613-0.182s0.311-0.288,0.406-0.5c0.095-0.212,0.143-0.453,0.143-0.722c0-0.291-0.051-0.539-0.154-0.745     c-0.103-0.206-0.241-0.359-0.413-0.461c-0.173-0.101-0.365-0.152-0.577-0.152c-0.26,0-0.447,0.032-0.559,0.095     c-0.112,0.064-0.273,0.175-0.484,0.334c-0.21,0.159-0.384,0.238-0.52,0.238c-0.148,0-0.28-0.054-0.395-0.161     c-0.115-0.107-0.173-0.229-0.173-0.366c0-0.015,0.017-0.118,0.05-0.309l0.381-2.175c0.042-0.26,0.121-0.45,0.236-0.568     c0.115-0.118,0.303-0.177,0.563-0.177h2.398c0.472,0,0.708,0.18,0.708,0.54c0,0.157-0.058,0.285-0.173,0.381     C34.091,73.916,33.922,73.965,33.698,73.965z" fill="#050708"/><path d="M42.117,75.481c0.279,0,0.518-0.082,0.72-0.245s0.302-0.398,0.302-0.704c0-0.233-0.08-0.434-0.241-0.602     c-0.16-0.168-0.377-0.252-0.649-0.252c-0.185,0-0.337,0.026-0.456,0.077s-0.214,0.12-0.284,0.204s-0.135,0.194-0.198,0.327     c-0.062,0.133-0.119,0.259-0.17,0.377c-0.03,0.064-0.085,0.114-0.163,0.15c-0.079,0.036-0.17,0.054-0.272,0.054     c-0.121,0-0.232-0.049-0.334-0.148c-0.101-0.098-0.152-0.229-0.152-0.393c0-0.157,0.048-0.323,0.143-0.497     s0.235-0.34,0.418-0.497c0.183-0.157,0.411-0.284,0.683-0.379s0.577-0.143,0.913-0.143c0.294,0,0.562,0.04,0.804,0.12     s0.453,0.196,0.631,0.347c0.179,0.151,0.313,0.327,0.404,0.527s0.136,0.415,0.136,0.645c0,0.303-0.066,0.562-0.198,0.779     c-0.132,0.216-0.32,0.428-0.565,0.633c0.236,0.127,0.435,0.272,0.597,0.436c0.162,0.163,0.284,0.344,0.366,0.543     c0.082,0.198,0.123,0.412,0.123,0.643c0,0.275-0.055,0.542-0.166,0.799c-0.11,0.257-0.273,0.487-0.488,0.688     c-0.215,0.201-0.47,0.359-0.765,0.472s-0.621,0.17-0.979,0.17c-0.363,0-0.689-0.065-0.976-0.195     c-0.288-0.13-0.524-0.293-0.711-0.488c-0.186-0.195-0.327-0.397-0.422-0.606c-0.095-0.209-0.143-0.381-0.143-0.518     c0-0.176,0.057-0.317,0.17-0.425c0.114-0.107,0.255-0.161,0.425-0.161c0.085,0,0.167,0.025,0.245,0.075     c0.079,0.05,0.13,0.11,0.154,0.179c0.157,0.421,0.326,0.733,0.506,0.938c0.18,0.204,0.434,0.307,0.761,0.307     c0.188,0,0.369-0.046,0.543-0.139s0.318-0.229,0.431-0.411s0.17-0.392,0.17-0.631c0-0.354-0.097-0.632-0.291-0.833     c-0.194-0.201-0.463-0.302-0.808-0.302c-0.061,0-0.154,0.006-0.282,0.018c-0.127,0.012-0.209,0.018-0.245,0.018     c-0.167,0-0.295-0.042-0.386-0.125s-0.136-0.199-0.136-0.347c0-0.145,0.054-0.263,0.163-0.352     c0.109-0.089,0.271-0.134,0.486-0.134H42.117z" fill="#050708"/><path d="M47.72,78.878v-4.132c-0.769,0.59-1.287,0.885-1.553,0.885c-0.127,0-0.24-0.051-0.338-0.152     c-0.098-0.101-0.148-0.219-0.148-0.352c0-0.154,0.048-0.268,0.145-0.341c0.097-0.073,0.268-0.167,0.513-0.282     c0.366-0.173,0.659-0.354,0.879-0.545s0.414-0.404,0.584-0.64c0.17-0.236,0.28-0.381,0.331-0.436     c0.051-0.054,0.148-0.082,0.291-0.082c0.16,0,0.289,0.062,0.386,0.186s0.145,0.295,0.145,0.513v5.199     c0,0.608-0.207,0.913-0.622,0.913c-0.185,0-0.333-0.062-0.445-0.186S47.72,79.12,47.72,78.878z" fill="#050708"/><path d="M54.927,73.965H52.77l-0.259,1.471c0.43-0.23,0.826-0.345,1.19-0.345c0.291,0,0.562,0.054,0.815,0.163     c0.253,0.109,0.475,0.26,0.665,0.452c0.191,0.192,0.341,0.42,0.45,0.683s0.163,0.546,0.163,0.849     c0,0.439-0.098,0.839-0.295,1.199s-0.481,0.646-0.851,0.858s-0.798,0.318-1.283,0.318c-0.542,0-0.982-0.1-1.319-0.3     c-0.338-0.2-0.577-0.429-0.717-0.688s-0.211-0.485-0.211-0.679c0-0.118,0.049-0.23,0.148-0.336s0.222-0.159,0.37-0.159     c0.254,0,0.444,0.147,0.568,0.44c0.121,0.269,0.285,0.479,0.49,0.629c0.206,0.15,0.436,0.225,0.69,0.225     c0.233,0,0.437-0.061,0.613-0.182s0.311-0.288,0.406-0.5c0.095-0.212,0.143-0.453,0.143-0.722c0-0.291-0.051-0.539-0.154-0.745     c-0.103-0.206-0.241-0.359-0.413-0.461c-0.173-0.101-0.365-0.152-0.577-0.152c-0.26,0-0.447,0.032-0.559,0.095     c-0.112,0.064-0.273,0.175-0.484,0.334s-0.384,0.238-0.52,0.238c-0.148,0-0.28-0.054-0.395-0.161s-0.173-0.229-0.173-0.366     c0-0.015,0.017-0.118,0.05-0.309l0.381-2.175c0.042-0.26,0.121-0.45,0.236-0.568s0.303-0.177,0.563-0.177H54.9     c0.472,0,0.708,0.18,0.708,0.54c0,0.157-0.058,0.285-0.173,0.381C55.321,73.916,55.151,73.965,54.927,73.965z" fill="#050708"/><path d="M57.833,75.899c0.206-0.245,0.43-0.427,0.672-0.545c0.242-0.118,0.513-0.177,0.813-0.177     c0.288,0,0.553,0.054,0.797,0.161c0.244,0.107,0.457,0.26,0.64,0.459c0.183,0.198,0.325,0.432,0.425,0.702s0.15,0.551,0.15,0.845     c0,0.427-0.098,0.814-0.293,1.162s-0.468,0.62-0.817,0.815c-0.35,0.195-0.745,0.293-1.187,0.293     c-0.509,0-0.948-0.124-1.317-0.372c-0.369-0.248-0.652-0.615-0.847-1.101c-0.195-0.486-0.293-1.08-0.293-1.782     c0-0.572,0.059-1.084,0.177-1.535c0.118-0.451,0.288-0.825,0.509-1.122c0.221-0.297,0.489-0.521,0.804-0.672     c0.315-0.151,0.674-0.227,1.076-0.227c0.388,0,0.729,0.076,1.024,0.227s0.518,0.339,0.668,0.563s0.225,0.439,0.225,0.645     c0,0.124-0.047,0.237-0.141,0.338c-0.094,0.101-0.213,0.152-0.359,0.152c-0.127,0-0.245-0.04-0.354-0.12     c-0.109-0.08-0.189-0.191-0.241-0.334c-0.07-0.182-0.18-0.328-0.331-0.438s-0.327-0.166-0.527-0.166     c-0.16,0-0.32,0.046-0.479,0.139c-0.159,0.092-0.293,0.217-0.402,0.375C58.003,74.503,57.873,75.076,57.833,75.899z      M59.059,78.719c0.306,0,0.559-0.125,0.758-0.375c0.2-0.25,0.3-0.577,0.3-0.983c0-0.275-0.047-0.512-0.141-0.711     c-0.094-0.198-0.223-0.35-0.386-0.454c-0.163-0.104-0.344-0.157-0.54-0.157c-0.188,0-0.367,0.05-0.538,0.15     c-0.171,0.1-0.309,0.244-0.413,0.434c-0.104,0.189-0.157,0.411-0.157,0.665c0,0.409,0.106,0.749,0.318,1.022     S58.738,78.719,59.059,78.719z" fill="#050708"/><path d="M71.411,76.235c0,0.496-0.03,0.923-0.091,1.281c-0.061,0.357-0.173,0.681-0.336,0.972     c-0.206,0.357-0.472,0.633-0.799,0.826c-0.327,0.194-0.69,0.291-1.09,0.291c-0.46,0-0.873-0.13-1.237-0.391     c-0.365-0.26-0.64-0.621-0.824-1.081c-0.094-0.251-0.163-0.529-0.207-0.833c-0.044-0.304-0.066-0.633-0.066-0.988     c0-0.457,0.024-0.869,0.073-1.235s0.124-0.681,0.227-0.945c0.179-0.436,0.438-0.768,0.779-0.997     c0.341-0.229,0.747-0.343,1.219-0.343c0.312,0,0.595,0.051,0.849,0.152c0.254,0.101,0.478,0.25,0.67,0.445     c0.192,0.195,0.355,0.437,0.488,0.724C71.296,74.614,71.411,75.321,71.411,76.235z M70.167,76.144c0-0.554-0.033-1.007-0.1-1.36     c-0.067-0.353-0.179-0.619-0.336-0.799c-0.157-0.18-0.375-0.27-0.654-0.27c-0.4,0-0.677,0.201-0.833,0.604     c-0.156,0.403-0.234,1.023-0.234,1.862c0,0.569,0.033,1.035,0.1,1.399c0.067,0.363,0.179,0.638,0.336,0.824     s0.371,0.279,0.64,0.279c0.279,0,0.496-0.097,0.654-0.291s0.268-0.471,0.331-0.831C70.135,77.201,70.167,76.728,70.167,76.144z" fill="#050708"/><path d="M74.399,75.481c0.279,0,0.518-0.082,0.72-0.245c0.201-0.163,0.302-0.398,0.302-0.704     c0-0.233-0.08-0.434-0.241-0.602c-0.16-0.168-0.377-0.252-0.649-0.252c-0.185,0-0.337,0.026-0.456,0.077     c-0.12,0.051-0.214,0.12-0.284,0.204c-0.07,0.085-0.135,0.194-0.198,0.327c-0.062,0.133-0.119,0.259-0.17,0.377     c-0.03,0.064-0.085,0.114-0.163,0.15c-0.079,0.036-0.17,0.054-0.272,0.054c-0.121,0-0.232-0.049-0.334-0.148     s-0.152-0.229-0.152-0.393c0-0.157,0.048-0.323,0.143-0.497c0.095-0.174,0.235-0.34,0.418-0.497     c0.183-0.157,0.411-0.284,0.683-0.379s0.577-0.143,0.913-0.143c0.294,0,0.562,0.04,0.804,0.12s0.453,0.196,0.631,0.347     s0.313,0.327,0.404,0.527s0.136,0.415,0.136,0.645c0,0.303-0.066,0.562-0.198,0.779c-0.132,0.216-0.32,0.428-0.565,0.633     c0.236,0.127,0.435,0.272,0.597,0.436s0.284,0.344,0.366,0.543c0.082,0.198,0.123,0.412,0.123,0.643     c0,0.275-0.055,0.542-0.166,0.799s-0.273,0.487-0.488,0.688s-0.47,0.359-0.765,0.472s-0.621,0.17-0.979,0.17     c-0.363,0-0.689-0.065-0.976-0.195c-0.288-0.13-0.524-0.293-0.711-0.488c-0.186-0.195-0.327-0.397-0.422-0.606     s-0.143-0.381-0.143-0.518c0-0.176,0.057-0.317,0.17-0.425c0.114-0.107,0.255-0.161,0.425-0.161c0.085,0,0.167,0.025,0.245,0.075     c0.079,0.05,0.13,0.11,0.154,0.179c0.157,0.421,0.326,0.733,0.506,0.938c0.18,0.204,0.434,0.307,0.761,0.307     c0.188,0,0.369-0.046,0.543-0.139s0.318-0.229,0.431-0.411s0.17-0.392,0.17-0.631c0-0.354-0.097-0.632-0.291-0.833     c-0.194-0.201-0.463-0.302-0.808-0.302c-0.061,0-0.154,0.006-0.282,0.018c-0.127,0.012-0.209,0.018-0.245,0.018     c-0.167,0-0.295-0.042-0.386-0.125s-0.136-0.199-0.136-0.347c0-0.145,0.054-0.263,0.163-0.352     c0.109-0.089,0.271-0.134,0.486-0.134H74.399z" fill="#050708"/><path d="M78.826,72.906h3.024c0.291,0,0.501,0.045,0.631,0.136c0.13,0.091,0.195,0.241,0.195,0.45     c0,0.127-0.076,0.295-0.229,0.504c-0.153,0.209-0.327,0.44-0.522,0.693c-0.195,0.253-0.397,0.567-0.604,0.942     c-0.207,0.375-0.397,0.834-0.57,1.376c-0.073,0.239-0.124,0.437-0.154,0.595c-0.03,0.157-0.064,0.362-0.1,0.613     c-0.036,0.251-0.068,0.444-0.095,0.577c-0.064,0.309-0.154,0.523-0.27,0.643c-0.117,0.12-0.272,0.179-0.465,0.179     c-0.185,0-0.333-0.064-0.445-0.193c-0.112-0.129-0.168-0.319-0.168-0.57c0-0.194,0.041-0.457,0.123-0.79     c0.082-0.333,0.215-0.732,0.4-1.197c0.185-0.465,0.416-0.941,0.693-1.43c0.277-0.489,0.606-0.976,0.988-1.46h-2.429     c-0.254,0-0.444-0.046-0.57-0.139c-0.126-0.092-0.188-0.237-0.188-0.434c0-0.209,0.067-0.344,0.2-0.404     C78.401,72.937,78.587,72.906,78.826,72.906z" fill="#050708"/><path d="M84.979,78.428h2.37c0.236,0,0.416,0.048,0.54,0.145c0.124,0.097,0.186,0.229,0.186,0.395     c0,0.148-0.049,0.274-0.148,0.377S87.681,79.5,87.482,79.5h-3.342c-0.227,0-0.404-0.063-0.531-0.188     c-0.127-0.126-0.191-0.273-0.191-0.443c0-0.109,0.041-0.254,0.123-0.434c0.082-0.18,0.171-0.322,0.268-0.425     c0.403-0.418,0.766-0.776,1.09-1.074c0.324-0.298,0.556-0.494,0.695-0.588c0.248-0.176,0.455-0.352,0.62-0.529     c0.165-0.177,0.291-0.359,0.377-0.545c0.086-0.186,0.129-0.369,0.129-0.547c0-0.194-0.046-0.367-0.139-0.52     c-0.092-0.153-0.218-0.272-0.377-0.356c-0.159-0.085-0.332-0.127-0.52-0.127c-0.397,0-0.708,0.174-0.935,0.522     c-0.03,0.045-0.081,0.17-0.152,0.372s-0.151,0.359-0.241,0.468c-0.089,0.109-0.22,0.163-0.393,0.163     c-0.151,0-0.277-0.05-0.377-0.15c-0.1-0.1-0.15-0.236-0.15-0.409c0-0.209,0.047-0.427,0.141-0.654     c0.094-0.227,0.234-0.433,0.42-0.618c0.186-0.185,0.422-0.334,0.708-0.447c0.286-0.114,0.621-0.17,1.006-0.17     c0.463,0,0.858,0.073,1.185,0.218c0.212,0.097,0.398,0.23,0.559,0.4c0.16,0.17,0.285,0.366,0.375,0.588     c0.089,0.223,0.134,0.453,0.134,0.693c0,0.375-0.093,0.717-0.279,1.024s-0.376,0.548-0.57,0.722s-0.518,0.447-0.974,0.82     c-0.456,0.372-0.768,0.661-0.938,0.867C85.129,78.215,85.055,78.313,84.979,78.428z" fill="#050708"/><path d="M97.386,73.965h-2.157l-0.259,1.471c0.43-0.23,0.826-0.345,1.19-0.345c0.291,0,0.562,0.054,0.815,0.163     s0.475,0.26,0.665,0.452c0.191,0.192,0.341,0.42,0.45,0.683c0.109,0.263,0.163,0.546,0.163,0.849     c0,0.439-0.098,0.839-0.295,1.199s-0.481,0.646-0.851,0.858s-0.798,0.318-1.283,0.318c-0.542,0-0.982-0.1-1.319-0.3     s-0.577-0.429-0.717-0.688c-0.141-0.259-0.211-0.485-0.211-0.679c0-0.118,0.049-0.23,0.148-0.336s0.222-0.159,0.37-0.159     c0.254,0,0.444,0.147,0.568,0.44c0.121,0.269,0.285,0.479,0.49,0.629c0.206,0.15,0.436,0.225,0.69,0.225     c0.233,0,0.437-0.061,0.613-0.182c0.176-0.121,0.311-0.288,0.406-0.5s0.143-0.453,0.143-0.722c0-0.291-0.051-0.539-0.154-0.745     c-0.103-0.206-0.241-0.359-0.413-0.461c-0.173-0.101-0.365-0.152-0.577-0.152c-0.26,0-0.447,0.032-0.559,0.095     c-0.112,0.064-0.273,0.175-0.484,0.334s-0.384,0.238-0.52,0.238c-0.148,0-0.28-0.054-0.395-0.161     c-0.115-0.107-0.173-0.229-0.173-0.366c0-0.015,0.017-0.118,0.05-0.309l0.381-2.175c0.042-0.26,0.121-0.45,0.236-0.568     s0.303-0.177,0.563-0.177h2.398c0.472,0,0.708,0.18,0.708,0.54c0,0.157-0.058,0.285-0.173,0.381     C97.779,73.916,97.61,73.965,97.386,73.965z" fill="#050708"/><path d="M101.863,78.923v-0.845h-2.28c-0.288,0-0.503-0.065-0.647-0.195c-0.144-0.13-0.216-0.307-0.216-0.531     c0-0.058,0.011-0.116,0.032-0.175c0.021-0.059,0.053-0.121,0.095-0.186s0.086-0.128,0.132-0.188s0.101-0.135,0.168-0.223     l2.407-3.22c0.157-0.212,0.287-0.366,0.388-0.461s0.223-0.143,0.366-0.143c0.46,0,0.69,0.263,0.69,0.79v3.515h0.195     c0.233,0,0.42,0.032,0.561,0.095c0.141,0.064,0.211,0.203,0.211,0.418c0,0.176-0.058,0.303-0.173,0.384     c-0.115,0.08-0.288,0.12-0.518,0.12h-0.277v0.845c0,0.233-0.051,0.406-0.154,0.52s-0.241,0.17-0.413,0.17     c-0.17,0-0.307-0.058-0.411-0.175C101.915,79.322,101.863,79.15,101.863,78.923z M99.91,77.061h1.953v-2.638L99.91,77.061z" fill="#050708"/><path d="M107.921,76.517c-0.2,0.236-0.423,0.414-0.67,0.534c-0.247,0.12-0.52,0.179-0.82,0.179     c-0.285,0-0.55-0.055-0.797-0.166c-0.247-0.11-0.46-0.265-0.64-0.463c-0.18-0.198-0.319-0.43-0.416-0.695     c-0.097-0.265-0.145-0.543-0.145-0.833c0-0.312,0.054-0.608,0.163-0.888s0.265-0.523,0.468-0.729     c0.203-0.206,0.444-0.366,0.724-0.481c0.28-0.115,0.59-0.173,0.929-0.173c0.391,0,0.739,0.071,1.044,0.213     c0.306,0.142,0.563,0.349,0.772,0.62c0.209,0.271,0.369,0.612,0.481,1.024c0.112,0.412,0.168,0.878,0.168,1.399     c0,0.581-0.059,1.094-0.177,1.537c-0.118,0.444-0.29,0.816-0.515,1.117c-0.226,0.301-0.496,0.525-0.811,0.672     c-0.315,0.147-0.672,0.22-1.072,0.22c-0.394,0-0.736-0.075-1.026-0.225c-0.291-0.15-0.512-0.336-0.663-0.559     c-0.151-0.223-0.227-0.437-0.227-0.643c0-0.127,0.047-0.241,0.141-0.341c0.094-0.1,0.213-0.15,0.359-0.15     c0.133,0,0.253,0.037,0.359,0.111c0.106,0.074,0.186,0.185,0.241,0.334c0.067,0.182,0.177,0.328,0.331,0.438     c0.154,0.11,0.328,0.166,0.522,0.166c0.173,0,0.336-0.044,0.49-0.132c0.154-0.088,0.286-0.212,0.395-0.372     C107.748,77.909,107.878,77.337,107.921,76.517z M107.816,75.127c0-0.206-0.028-0.396-0.084-0.57s-0.135-0.325-0.236-0.452     c-0.101-0.127-0.223-0.227-0.363-0.3c-0.141-0.073-0.294-0.109-0.461-0.109c-0.288,0-0.531,0.123-0.731,0.37     c-0.2,0.247-0.3,0.573-0.3,0.979c0,0.403,0.1,0.724,0.3,0.963c0.2,0.239,0.453,0.359,0.758,0.359     c0.188,0,0.367-0.049,0.538-0.148s0.31-0.241,0.418-0.429C107.762,75.602,107.816,75.381,107.816,75.127z" fill="#050708"/><path d="M112.207,75.481c0.279,0,0.518-0.082,0.72-0.245c0.201-0.163,0.302-0.398,0.302-0.704     c0-0.233-0.08-0.434-0.241-0.602c-0.16-0.168-0.377-0.252-0.649-0.252c-0.185,0-0.337,0.026-0.456,0.077     c-0.12,0.051-0.214,0.12-0.284,0.204c-0.07,0.085-0.135,0.194-0.198,0.327c-0.062,0.133-0.119,0.259-0.17,0.377     c-0.03,0.064-0.085,0.114-0.163,0.15c-0.079,0.036-0.17,0.054-0.272,0.054c-0.121,0-0.232-0.049-0.334-0.148     s-0.152-0.229-0.152-0.393c0-0.157,0.048-0.323,0.143-0.497c0.095-0.174,0.235-0.34,0.418-0.497     c0.183-0.157,0.411-0.284,0.683-0.379s0.577-0.143,0.913-0.143c0.294,0,0.562,0.04,0.804,0.12s0.453,0.196,0.631,0.347     s0.313,0.327,0.404,0.527s0.136,0.415,0.136,0.645c0,0.303-0.066,0.562-0.198,0.779c-0.132,0.216-0.32,0.428-0.565,0.633     c0.236,0.127,0.435,0.272,0.597,0.436s0.284,0.344,0.366,0.543c0.082,0.198,0.123,0.412,0.123,0.643     c0,0.275-0.055,0.542-0.166,0.799s-0.273,0.487-0.488,0.688s-0.47,0.359-0.765,0.472s-0.621,0.17-0.979,0.17     c-0.363,0-0.689-0.065-0.976-0.195c-0.288-0.13-0.524-0.293-0.711-0.488c-0.186-0.195-0.327-0.397-0.422-0.606     s-0.143-0.381-0.143-0.518c0-0.176,0.057-0.317,0.17-0.425c0.114-0.107,0.255-0.161,0.425-0.161c0.085,0,0.167,0.025,0.245,0.075     c0.079,0.05,0.13,0.11,0.154,0.179c0.157,0.421,0.326,0.733,0.506,0.938c0.18,0.204,0.434,0.307,0.761,0.307     c0.188,0,0.369-0.046,0.543-0.139s0.318-0.229,0.431-0.411s0.17-0.392,0.17-0.631c0-0.354-0.097-0.632-0.291-0.833     c-0.194-0.201-0.463-0.302-0.808-0.302c-0.061,0-0.154,0.006-0.282,0.018c-0.127,0.012-0.209,0.018-0.245,0.018     c-0.167,0-0.295-0.042-0.386-0.125s-0.136-0.199-0.136-0.347c0-0.145,0.054-0.263,0.163-0.352     c0.109-0.089,0.271-0.134,0.486-0.134H112.207z" fill="#050708"/></g><g opacity="0.2"><path d="M57.073,86.487v-2.066c-0.384,0.295-0.643,0.443-0.777,0.443c-0.064,0-0.12-0.025-0.17-0.076     c-0.049-0.051-0.073-0.11-0.073-0.176c0-0.077,0.024-0.134,0.073-0.17c0.048-0.036,0.134-0.083,0.257-0.141     c0.183-0.086,0.329-0.177,0.439-0.272c0.11-0.095,0.207-0.202,0.292-0.32s0.14-0.191,0.166-0.218     c0.026-0.027,0.074-0.041,0.145-0.041c0.08,0,0.145,0.031,0.193,0.093c0.048,0.062,0.073,0.148,0.073,0.257v2.6     c0,0.304-0.104,0.456-0.311,0.456c-0.092,0-0.167-0.031-0.223-0.093C57.101,86.7,57.073,86.608,57.073,86.487z" fill="#050708"/><path d="M59.837,86.487v-2.066c-0.384,0.295-0.643,0.443-0.777,0.443c-0.064,0-0.12-0.025-0.17-0.076     c-0.049-0.051-0.073-0.11-0.073-0.176c0-0.077,0.024-0.134,0.073-0.17c0.048-0.036,0.134-0.083,0.257-0.141     c0.183-0.086,0.329-0.177,0.439-0.272c0.11-0.095,0.207-0.202,0.292-0.32c0.085-0.118,0.14-0.191,0.166-0.218     c0.026-0.027,0.074-0.041,0.145-0.041c0.08,0,0.145,0.031,0.193,0.093c0.048,0.062,0.073,0.148,0.073,0.257v2.6     c0,0.304-0.104,0.456-0.311,0.456c-0.092,0-0.167-0.031-0.223-0.093C59.865,86.7,59.837,86.608,59.837,86.487z" fill="#050708"/><path d="M62.486,83.874l-0.636,2.618c-0.021,0.086-0.039,0.154-0.056,0.204c-0.015,0.05-0.04,0.089-0.073,0.117     c-0.033,0.027-0.079,0.042-0.142,0.042c-0.154,0-0.232-0.067-0.232-0.2c0-0.035,0.015-0.122,0.045-0.261l0.633-2.618     c0.033-0.139,0.065-0.235,0.095-0.286c0.03-0.051,0.089-0.077,0.177-0.077c0.076,0,0.133,0.018,0.174,0.054     c0.039,0.036,0.06,0.086,0.06,0.15C62.534,83.664,62.518,83.75,62.486,83.874z" fill="#050708"/><path d="M63.631,86.262h1.185c0.118,0,0.208,0.024,0.27,0.073c0.062,0.048,0.093,0.114,0.093,0.198     c0,0.074-0.025,0.137-0.073,0.188c-0.05,0.051-0.124,0.077-0.224,0.077h-1.671c-0.114,0-0.202-0.031-0.266-0.094     c-0.064-0.063-0.095-0.137-0.095-0.222c0-0.054,0.02-0.126,0.061-0.217c0.041-0.089,0.086-0.16,0.134-0.212     c0.201-0.209,0.383-0.388,0.545-0.537c0.162-0.148,0.278-0.247,0.347-0.294c0.124-0.088,0.227-0.176,0.31-0.265     c0.082-0.088,0.145-0.179,0.188-0.272c0.044-0.092,0.065-0.184,0.065-0.273c0-0.097-0.023-0.183-0.07-0.26     c-0.046-0.076-0.109-0.136-0.188-0.179c-0.08-0.042-0.167-0.064-0.26-0.064c-0.198,0-0.354,0.087-0.468,0.261     c-0.015,0.023-0.041,0.085-0.076,0.186c-0.036,0.101-0.076,0.179-0.121,0.234c-0.045,0.054-0.11,0.082-0.196,0.082     c-0.076,0-0.139-0.025-0.188-0.075c-0.05-0.05-0.075-0.118-0.075-0.204c0-0.104,0.023-0.213,0.07-0.327s0.117-0.216,0.21-0.309     c0.092-0.092,0.21-0.167,0.354-0.223c0.142-0.058,0.31-0.086,0.503-0.086c0.232,0,0.429,0.036,0.593,0.109     c0.106,0.048,0.199,0.115,0.279,0.2c0.08,0.085,0.142,0.182,0.188,0.294c0.044,0.11,0.067,0.226,0.067,0.346     c0,0.188-0.047,0.359-0.139,0.512c-0.094,0.154-0.188,0.274-0.285,0.36c-0.097,0.088-0.26,0.224-0.487,0.41     c-0.229,0.186-0.384,0.331-0.469,0.434C63.706,86.156,63.668,86.205,63.631,86.262z" fill="#050708"/><path d="M67.899,85.166c0,0.248-0.015,0.462-0.045,0.64c-0.03,0.179-0.086,0.341-0.168,0.486     c-0.103,0.179-0.236,0.316-0.4,0.413c-0.163,0.097-0.345,0.145-0.545,0.145c-0.23,0-0.437-0.065-0.619-0.195     c-0.182-0.13-0.319-0.31-0.412-0.54c-0.047-0.126-0.082-0.264-0.103-0.417c-0.023-0.151-0.033-0.316-0.033-0.493     c0-0.229,0.012-0.434,0.036-0.618c0.024-0.183,0.062-0.341,0.114-0.472c0.089-0.218,0.219-0.384,0.389-0.498     c0.171-0.114,0.374-0.172,0.61-0.172c0.156,0,0.297,0.026,0.425,0.076c0.127,0.051,0.238,0.124,0.335,0.223     c0.095,0.097,0.177,0.218,0.244,0.362C67.842,84.355,67.899,84.709,67.899,85.166z M67.277,85.12c0-0.277-0.017-0.503-0.05-0.68     c-0.033-0.176-0.089-0.309-0.168-0.4c-0.079-0.089-0.188-0.135-0.327-0.135c-0.2,0-0.339,0.101-0.416,0.302     c-0.079,0.201-0.117,0.512-0.117,0.931c0,0.285,0.017,0.518,0.05,0.699c0.033,0.182,0.089,0.319,0.168,0.412     c0.079,0.092,0.185,0.139,0.32,0.139c0.139,0,0.248-0.048,0.327-0.145c0.079-0.097,0.134-0.235,0.166-0.416     C67.261,85.649,67.277,85.412,67.277,85.12z" fill="#050708"/></g><g opacity="0.2"><path d="M15.95,91.643h-1.771v1.135h1.48c0.137,0,0.24,0.031,0.307,0.092c0.067,0.061,0.101,0.144,0.101,0.247     c0,0.103-0.034,0.185-0.103,0.245c-0.069,0.061-0.17,0.091-0.306,0.091h-1.48v1.462c0,0.185-0.042,0.323-0.126,0.413     c-0.084,0.09-0.191,0.135-0.322,0.135c-0.133,0-0.241-0.045-0.325-0.136c-0.084-0.091-0.126-0.228-0.126-0.412V91.5     c0-0.129,0.019-0.235,0.058-0.316c0.039-0.082,0.098-0.142,0.18-0.179c0.082-0.037,0.186-0.056,0.313-0.056h2.119     c0.143,0,0.25,0.032,0.319,0.095c0.07,0.064,0.104,0.147,0.104,0.25c0,0.105-0.035,0.189-0.104,0.253     C16.2,91.611,16.093,91.643,15.95,91.643z" fill="#050708"/><path d="M17.079,94.915v-3.497c0-0.182,0.042-0.318,0.124-0.409s0.19-0.136,0.321-0.136     c0.135,0,0.244,0.045,0.328,0.135c0.084,0.09,0.126,0.226,0.126,0.41v3.497c0,0.184-0.042,0.321-0.126,0.412     c-0.084,0.091-0.193,0.136-0.328,0.136c-0.129,0-0.235-0.046-0.319-0.138C17.121,95.234,17.079,95.097,17.079,94.915z" fill="#050708"/><path d="M20.191,93.489h-0.315v1.426c0,0.188-0.042,0.326-0.124,0.415c-0.082,0.089-0.191,0.133-0.324,0.133     c-0.143,0-0.254-0.046-0.333-0.139c-0.079-0.093-0.118-0.229-0.118-0.409V91.5c0-0.194,0.043-0.334,0.13-0.421     s0.227-0.13,0.421-0.13h1.462c0.202,0,0.375,0.008,0.518,0.026c0.143,0.017,0.272,0.052,0.388,0.104     c0.139,0.058,0.263,0.142,0.369,0.251c0.107,0.109,0.188,0.235,0.244,0.38s0.083,0.297,0.083,0.459     c0,0.331-0.093,0.596-0.28,0.793c-0.187,0.198-0.47,0.338-0.849,0.421c0.16,0.085,0.312,0.21,0.457,0.375     c0.145,0.166,0.275,0.341,0.389,0.528c0.114,0.187,0.203,0.355,0.266,0.506c0.064,0.151,0.095,0.254,0.095,0.31     c0,0.058-0.019,0.117-0.056,0.174s-0.089,0.103-0.153,0.136s-0.139,0.05-0.224,0.05c-0.101,0-0.185-0.023-0.254-0.071     c-0.069-0.048-0.128-0.107-0.177-0.18s-0.117-0.179-0.201-0.321l-0.36-0.599c-0.129-0.22-0.244-0.388-0.347-0.503     s-0.205-0.194-0.31-0.236C20.483,93.511,20.351,93.489,20.191,93.489z M20.706,91.625h-0.829v1.22h0.805     c0.216,0,0.397-0.019,0.545-0.056c0.148-0.037,0.26-0.101,0.338-0.191c0.078-0.09,0.117-0.213,0.117-0.371     c0-0.123-0.031-0.232-0.094-0.325c-0.063-0.094-0.149-0.164-0.26-0.21C21.221,91.646,21.015,91.625,20.706,91.625z" fill="#050708"/><path d="M26.815,94.055c0,0.269-0.069,0.509-0.207,0.724c-0.139,0.214-0.341,0.381-0.607,0.503     c-0.266,0.121-0.582,0.182-0.948,0.182c-0.438,0-0.799-0.082-1.084-0.248c-0.202-0.119-0.366-0.278-0.492-0.477     c-0.126-0.199-0.189-0.392-0.189-0.58c0-0.109,0.038-0.202,0.114-0.28c0.076-0.078,0.172-0.117,0.289-0.117     c0.095,0,0.175,0.03,0.241,0.091s0.122,0.151,0.168,0.269c0.057,0.142,0.117,0.26,0.183,0.354     c0.066,0.095,0.158,0.173,0.277,0.235c0.119,0.061,0.275,0.092,0.469,0.092c0.266,0,0.483-0.062,0.649-0.186     s0.25-0.279,0.25-0.465c0-0.148-0.045-0.267-0.135-0.359s-0.206-0.162-0.348-0.21c-0.142-0.048-0.332-0.1-0.571-0.154     c-0.319-0.075-0.586-0.162-0.801-0.262c-0.215-0.1-0.385-0.236-0.512-0.409c-0.126-0.173-0.189-0.387-0.189-0.643     c0-0.244,0.067-0.461,0.2-0.651c0.133-0.19,0.326-0.335,0.578-0.437s0.549-0.153,0.89-0.153c0.272,0,0.508,0.034,0.707,0.101     c0.199,0.067,0.364,0.157,0.495,0.269c0.131,0.112,0.227,0.229,0.288,0.353c0.061,0.123,0.091,0.243,0.091,0.36     c0,0.107-0.038,0.204-0.114,0.289c-0.076,0.086-0.17,0.129-0.283,0.129c-0.103,0-0.181-0.026-0.235-0.077     s-0.111-0.135-0.174-0.253c-0.081-0.167-0.178-0.298-0.291-0.392c-0.113-0.094-0.294-0.141-0.545-0.141     c-0.232,0-0.419,0.051-0.562,0.153c-0.142,0.102-0.213,0.225-0.213,0.368c0,0.089,0.024,0.166,0.073,0.23     c0.048,0.064,0.115,0.12,0.2,0.167c0.085,0.046,0.17,0.082,0.257,0.109s0.23,0.064,0.43,0.115     c0.251,0.058,0.477,0.123,0.68,0.194c0.203,0.07,0.375,0.157,0.518,0.257c0.142,0.101,0.254,0.229,0.333,0.383     C26.775,93.642,26.815,93.831,26.815,94.055z" fill="#050708"/><path d="M30.46,91.691h-0.981v3.224c0,0.185-0.042,0.323-0.124,0.413s-0.19,0.135-0.321,0.135     c-0.133,0-0.241-0.045-0.325-0.136c-0.084-0.091-0.126-0.228-0.126-0.412v-3.224h-0.981c-0.154,0-0.267-0.034-0.342-0.101     c-0.075-0.067-0.112-0.157-0.112-0.268c0-0.115,0.039-0.206,0.117-0.272c0.078-0.067,0.19-0.1,0.338-0.1h2.858     c0.155,0,0.271,0.034,0.347,0.103s0.114,0.158,0.114,0.269s-0.039,0.201-0.115,0.268C30.729,91.657,30.614,91.691,30.46,91.691z" fill="#050708"/><path d="M32.625,91.413l1.729,2.616v-2.64c0-0.172,0.037-0.3,0.111-0.386c0.073-0.086,0.173-0.129,0.298-0.129     c0.129,0,0.231,0.043,0.306,0.129c0.075,0.086,0.112,0.214,0.112,0.386v3.491c0,0.39-0.161,0.584-0.484,0.584     c-0.081,0-0.154-0.011-0.218-0.035s-0.125-0.06-0.182-0.11s-0.109-0.11-0.157-0.177c-0.048-0.067-0.097-0.137-0.145-0.207     l-1.686-2.585v2.6c0,0.17-0.039,0.297-0.118,0.384c-0.079,0.087-0.179,0.13-0.303,0.13c-0.127,0-0.229-0.044-0.306-0.132     c-0.076-0.088-0.115-0.216-0.115-0.383v-3.424c0-0.145,0.016-0.26,0.048-0.342c0.039-0.091,0.102-0.165,0.191-0.223     c0.089-0.058,0.185-0.086,0.288-0.086c0.081,0,0.15,0.013,0.207,0.039s0.108,0.061,0.151,0.106s0.088,0.102,0.133,0.173     C32.529,91.262,32.576,91.336,32.625,91.413z" fill="#050708"/><path d="M38.921,94.885l-0.212-0.557h-1.804l-0.212,0.569c-0.082,0.222-0.154,0.372-0.212,0.45     c-0.058,0.078-0.154,0.117-0.288,0.117c-0.113,0-0.213-0.042-0.3-0.124c-0.087-0.082-0.13-0.176-0.13-0.282     c0-0.061,0.01-0.123,0.03-0.188s0.054-0.154,0.1-0.269l1.135-2.882c0.033-0.082,0.071-0.182,0.117-0.298s0.094-0.213,0.145-0.289     c0.051-0.076,0.119-0.139,0.203-0.186c0.084-0.048,0.187-0.071,0.31-0.071c0.125,0,0.229,0.023,0.313,0.071     c0.084,0.048,0.151,0.108,0.203,0.183s0.095,0.155,0.13,0.241c0.036,0.086,0.08,0.201,0.135,0.344l1.159,2.864     c0.091,0.218,0.136,0.376,0.136,0.475c0,0.103-0.043,0.198-0.129,0.283c-0.086,0.086-0.189,0.129-0.31,0.129     c-0.07,0-0.131-0.013-0.182-0.038c-0.051-0.025-0.093-0.06-0.127-0.103c-0.034-0.043-0.071-0.11-0.111-0.2     C38.984,95.033,38.949,94.954,38.921,94.885z M37.141,93.653h1.326l-0.669-1.832L37.141,93.653z" fill="#050708"/><path d="M42.04,94.718l-0.711-2.828v3.064c0,0.17-0.038,0.297-0.114,0.381c-0.076,0.085-0.176,0.127-0.301,0.127     c-0.121,0-0.22-0.042-0.297-0.126c-0.076-0.084-0.115-0.211-0.115-0.383v-3.512c0-0.194,0.051-0.325,0.151-0.392     c0.101-0.067,0.237-0.101,0.409-0.101h0.279c0.167,0,0.289,0.015,0.365,0.045s0.132,0.085,0.168,0.163s0.078,0.207,0.124,0.384     l0.645,2.431l0.645-2.431c0.046-0.178,0.088-0.306,0.124-0.384c0.036-0.079,0.092-0.133,0.168-0.163s0.198-0.045,0.365-0.045     h0.279c0.172,0,0.308,0.034,0.409,0.101c0.101,0.067,0.151,0.198,0.151,0.392v3.512c0,0.17-0.038,0.297-0.114,0.381     c-0.076,0.085-0.177,0.127-0.304,0.127c-0.119,0-0.217-0.042-0.294-0.127c-0.076-0.085-0.115-0.212-0.115-0.381v-3.064     l-0.711,2.828c-0.046,0.184-0.084,0.319-0.114,0.404c-0.03,0.086-0.083,0.164-0.162,0.235c-0.079,0.07-0.188,0.106-0.327,0.106     c-0.105,0-0.194-0.023-0.266-0.068c-0.073-0.045-0.129-0.104-0.17-0.174c-0.04-0.07-0.072-0.149-0.095-0.235     C42.087,94.901,42.064,94.812,42.04,94.718z" fill="#050708"/><path d="M48.63,91.643h-2.025v1.09h1.865c0.137,0,0.24,0.031,0.307,0.092c0.067,0.061,0.101,0.143,0.101,0.244     c0,0.101-0.033,0.183-0.1,0.247c-0.067,0.064-0.17,0.095-0.309,0.095h-1.865v1.262H48.7c0.142,0,0.247,0.033,0.319,0.098     c0.072,0.066,0.107,0.153,0.107,0.262c0,0.105-0.036,0.19-0.107,0.256c-0.072,0.066-0.178,0.098-0.319,0.098h-2.443     c-0.196,0-0.337-0.043-0.422-0.13c-0.086-0.087-0.129-0.227-0.129-0.421V91.5c0-0.129,0.019-0.235,0.058-0.316     c0.039-0.082,0.098-0.142,0.18-0.179c0.082-0.037,0.186-0.056,0.313-0.056h2.373c0.143,0,0.25,0.032,0.319,0.095     s0.104,0.147,0.104,0.25c0,0.105-0.035,0.189-0.104,0.253C48.88,91.611,48.773,91.643,48.63,91.643z" fill="#050708"/><path d="M58.472,91.419v3.23h1.822c0.145,0,0.257,0.036,0.335,0.106c0.078,0.07,0.117,0.16,0.117,0.266     c0,0.109-0.039,0.198-0.115,0.265c-0.076,0.067-0.188,0.101-0.336,0.101h-2.171c-0.196,0-0.337-0.043-0.422-0.13     c-0.086-0.087-0.129-0.227-0.129-0.421v-3.418c0-0.182,0.041-0.318,0.123-0.409s0.189-0.136,0.322-0.136     c0.135,0,0.244,0.045,0.328,0.135C58.43,91.099,58.472,91.235,58.472,91.419z" fill="#050708"/><path d="M64.094,94.885l-0.212-0.557h-1.804l-0.212,0.569c-0.082,0.222-0.154,0.372-0.212,0.45     c-0.058,0.078-0.154,0.117-0.288,0.117c-0.113,0-0.213-0.042-0.3-0.124c-0.087-0.082-0.13-0.176-0.13-0.282     c0-0.061,0.01-0.123,0.03-0.188s0.054-0.154,0.1-0.269l1.135-2.882c0.033-0.082,0.071-0.182,0.117-0.298s0.094-0.213,0.145-0.289     c0.051-0.076,0.119-0.139,0.203-0.186c0.084-0.048,0.187-0.071,0.31-0.071c0.125,0,0.229,0.023,0.313,0.071     c0.084,0.048,0.151,0.108,0.203,0.183s0.095,0.155,0.13,0.241c0.036,0.086,0.08,0.201,0.135,0.344l1.159,2.864     c0.091,0.218,0.136,0.376,0.136,0.475c0,0.103-0.043,0.198-0.129,0.283c-0.086,0.086-0.189,0.129-0.31,0.129     c-0.07,0-0.131-0.013-0.182-0.038c-0.051-0.025-0.093-0.06-0.127-0.103c-0.034-0.043-0.071-0.11-0.11-0.2     C64.156,95.033,64.122,94.954,64.094,94.885z M62.314,93.653h1.326l-0.669-1.832L62.314,93.653z" fill="#050708"/><path d="M69.086,94.055c0,0.269-0.069,0.509-0.207,0.724c-0.138,0.214-0.341,0.381-0.607,0.503     s-0.582,0.182-0.948,0.182c-0.438,0-0.799-0.082-1.084-0.248c-0.202-0.119-0.366-0.278-0.492-0.477     c-0.126-0.199-0.189-0.392-0.189-0.58c0-0.109,0.038-0.202,0.114-0.28c0.076-0.078,0.172-0.117,0.289-0.117     c0.095,0,0.175,0.03,0.241,0.091c0.066,0.061,0.122,0.151,0.168,0.269c0.057,0.142,0.117,0.26,0.183,0.354     s0.158,0.173,0.277,0.235c0.119,0.061,0.275,0.092,0.469,0.092c0.266,0,0.483-0.062,0.649-0.186s0.25-0.279,0.25-0.465     c0-0.148-0.045-0.267-0.135-0.359s-0.206-0.162-0.348-0.21c-0.142-0.048-0.332-0.1-0.571-0.154     c-0.319-0.075-0.586-0.162-0.801-0.262c-0.215-0.1-0.385-0.236-0.512-0.409c-0.126-0.173-0.189-0.387-0.189-0.643     c0-0.244,0.067-0.461,0.2-0.651c0.133-0.19,0.326-0.335,0.578-0.437c0.252-0.102,0.549-0.153,0.89-0.153     c0.272,0,0.508,0.034,0.707,0.101c0.199,0.067,0.364,0.157,0.495,0.269c0.131,0.112,0.227,0.229,0.288,0.353     c0.061,0.123,0.091,0.243,0.091,0.36c0,0.107-0.038,0.204-0.114,0.289c-0.076,0.086-0.17,0.129-0.283,0.129     c-0.103,0-0.181-0.026-0.235-0.077s-0.111-0.135-0.174-0.253c-0.081-0.167-0.178-0.298-0.291-0.392     c-0.113-0.094-0.294-0.141-0.545-0.141c-0.232,0-0.419,0.051-0.562,0.153s-0.213,0.225-0.213,0.368     c0,0.089,0.024,0.166,0.073,0.23s0.115,0.12,0.2,0.167c0.085,0.046,0.17,0.082,0.257,0.109s0.23,0.064,0.43,0.115     c0.251,0.058,0.477,0.123,0.68,0.194c0.203,0.07,0.375,0.157,0.518,0.257c0.142,0.101,0.254,0.229,0.333,0.383     C69.046,93.642,69.086,93.831,69.086,94.055z" fill="#050708"/><path d="M72.731,91.691H71.75v3.224c0,0.185-0.042,0.323-0.124,0.413c-0.082,0.09-0.19,0.135-0.321,0.135     c-0.133,0-0.241-0.045-0.325-0.136c-0.084-0.091-0.126-0.228-0.126-0.412v-3.224h-0.981c-0.154,0-0.267-0.034-0.342-0.101     s-0.112-0.157-0.112-0.268c0-0.115,0.039-0.206,0.117-0.272s0.19-0.1,0.338-0.1h2.858c0.155,0,0.271,0.034,0.347,0.103     s0.114,0.158,0.114,0.269s-0.039,0.201-0.115,0.268C72.999,91.657,72.884,91.691,72.731,91.691z" fill="#050708"/><path d="M74.895,91.413l1.729,2.616v-2.64c0-0.172,0.037-0.3,0.11-0.386c0.073-0.086,0.173-0.129,0.298-0.129     c0.129,0,0.231,0.043,0.306,0.129c0.075,0.086,0.112,0.214,0.112,0.386v3.491c0,0.39-0.161,0.584-0.484,0.584     c-0.081,0-0.154-0.011-0.218-0.035s-0.125-0.06-0.182-0.11s-0.109-0.11-0.157-0.177c-0.048-0.067-0.097-0.137-0.145-0.207     l-1.686-2.585v2.6c0,0.17-0.039,0.297-0.118,0.384s-0.179,0.13-0.303,0.13c-0.127,0-0.229-0.044-0.306-0.132     c-0.076-0.088-0.115-0.216-0.115-0.383v-3.424c0-0.145,0.016-0.26,0.048-0.342c0.039-0.091,0.102-0.165,0.191-0.223     c0.089-0.058,0.185-0.086,0.288-0.086c0.081,0,0.15,0.013,0.207,0.039s0.108,0.061,0.151,0.106s0.088,0.102,0.133,0.173     C74.8,91.262,74.847,91.336,74.895,91.413z" fill="#050708"/><path d="M81.192,94.885l-0.212-0.557h-1.804l-0.212,0.569c-0.082,0.222-0.154,0.372-0.212,0.45     c-0.058,0.078-0.154,0.117-0.288,0.117c-0.113,0-0.213-0.042-0.3-0.124c-0.087-0.082-0.13-0.176-0.13-0.282     c0-0.061,0.01-0.123,0.03-0.188s0.054-0.154,0.1-0.269l1.135-2.882c0.033-0.082,0.071-0.182,0.117-0.298s0.094-0.213,0.145-0.289     c0.051-0.076,0.119-0.139,0.203-0.186c0.084-0.048,0.187-0.071,0.31-0.071c0.125,0,0.229,0.023,0.313,0.071     c0.084,0.048,0.151,0.108,0.203,0.183c0.051,0.075,0.095,0.155,0.13,0.241c0.036,0.086,0.08,0.201,0.135,0.344l1.159,2.864     c0.091,0.218,0.136,0.376,0.136,0.475c0,0.103-0.043,0.198-0.129,0.283c-0.086,0.086-0.189,0.129-0.31,0.129     c-0.07,0-0.131-0.013-0.182-0.038c-0.051-0.025-0.093-0.06-0.127-0.103c-0.034-0.043-0.071-0.11-0.11-0.2     C81.254,95.033,81.22,94.954,81.192,94.885z M79.412,93.653h1.326l-0.669-1.832L79.412,93.653z" fill="#050708"/><path d="M84.31,94.718l-0.711-2.828v3.064c0,0.17-0.038,0.297-0.114,0.381c-0.076,0.085-0.176,0.127-0.301,0.127     c-0.121,0-0.22-0.042-0.297-0.126c-0.076-0.084-0.115-0.211-0.115-0.383v-3.512c0-0.194,0.051-0.325,0.151-0.392     c0.101-0.067,0.237-0.101,0.409-0.101h0.279c0.167,0,0.289,0.015,0.365,0.045s0.132,0.085,0.168,0.163     c0.036,0.079,0.078,0.207,0.124,0.384l0.645,2.431l0.645-2.431c0.046-0.178,0.088-0.306,0.124-0.384     c0.036-0.079,0.092-0.133,0.168-0.163s0.198-0.045,0.365-0.045h0.279c0.172,0,0.308,0.034,0.409,0.101     c0.101,0.067,0.151,0.198,0.151,0.392v3.512c0,0.17-0.038,0.297-0.114,0.381c-0.076,0.085-0.177,0.127-0.304,0.127     c-0.119,0-0.217-0.042-0.294-0.127c-0.076-0.085-0.115-0.212-0.115-0.381v-3.064l-0.711,2.828     c-0.046,0.184-0.084,0.319-0.114,0.404c-0.03,0.086-0.083,0.164-0.162,0.235c-0.079,0.07-0.188,0.106-0.327,0.106     c-0.105,0-0.194-0.023-0.266-0.068s-0.129-0.104-0.17-0.174c-0.04-0.07-0.072-0.149-0.095-0.235     C84.358,94.901,84.335,94.812,84.31,94.718z" fill="#050708"/><path d="M90.901,91.643h-2.025v1.09h1.865c0.137,0,0.24,0.031,0.307,0.092s0.101,0.143,0.101,0.244     c0,0.101-0.033,0.183-0.1,0.247c-0.067,0.064-0.17,0.095-0.309,0.095h-1.865v1.262h2.095c0.142,0,0.247,0.033,0.319,0.098     c0.072,0.066,0.107,0.153,0.107,0.262c0,0.105-0.036,0.19-0.107,0.256c-0.072,0.066-0.178,0.098-0.319,0.098h-2.443     c-0.196,0-0.337-0.043-0.422-0.13c-0.086-0.087-0.129-0.227-0.129-0.421V91.5c0-0.129,0.019-0.235,0.058-0.316     c0.039-0.082,0.098-0.142,0.18-0.179c0.082-0.037,0.186-0.056,0.313-0.056h2.373c0.143,0,0.25,0.032,0.319,0.095     c0.07,0.064,0.104,0.147,0.104,0.25c0,0.105-0.035,0.189-0.104,0.253C91.151,91.611,91.044,91.643,90.901,91.643z" fill="#050708"/></g></g><g><path d="M95.988,44.085c0-6.62,5.366-11.985,11.985-11.985c6.62,0,11.984,5.365,11.984,11.985    c0,6.618-5.364,11.985-11.984,11.985C101.354,56.07,95.988,50.703,95.988,44.085L95.988,44.085z" fill="#EDC651"/><path d="M99.946,35.164c0.006,0-0.628,0.548-1.051,1.085h2.132c0,0,0.729,0.788,0.999,1.383h-4.168    c0,0-0.404,0.635-0.672,1.171h5.512c0,0,0.504,0.943,0.614,1.441H96.61c0,0-0.23,0.653-0.326,1.134l7.337-0.009    c0.202,0.921,0.691,3.6-0.317,6.56l-6.665,0.009c0.106,0.354,0.288,0.835,0.461,1.19h5.724c-0.231,0.481-0.568,1.085-0.76,1.39    l-4.196,0.003c0.221,0.336,0.576,0.864,0.807,1.105l2.584-0.001c-0.485,0.669-1.306,1.363-1.306,1.363h-0.02l0.027,0.009    c-2.123,1.912-4.934,3.075-8.016,3.075c-6.62,0-11.985-5.366-11.985-11.985c0-6.62,5.365-11.985,11.985-11.985    C95.018,32.1,97.824,33.258,99.946,35.164L99.946,35.164z" fill="#AF5D47"/><g><path d="M94.266,42.211l-0.193,1.078l-1.052-0.027c0,0-0.525,0.137-0.525,0.359c0,0.221,0.387,0.498,0.968,0.747     c0.581,0.25,0.609,0.94,0.553,1.411c-0.055,0.47-0.138,1.446-1.825,1.494c-0.968,0.027-1.494-0.166-1.494-0.166L90.919,46     c0,0,1.245,0.332,1.522,0.138c0.277-0.193,0.608-0.526,0.083-0.747c-0.525-0.221-1.383-0.582-1.383-1.466     c0-0.885,0.36-1.383,0.913-1.632C92.605,42.045,93.574,42.072,94.266,42.211L94.266,42.211z" fill="#FFFFFF"/><polygon fill="#FFFFFF" points="85.956,47.144 84.734,47.144 85.445,42.942 83.933,47.119 83.09,47.119 82.886,42.775      82.147,47.144 80.991,47.144 82.081,40.731 83.483,40.731 83.974,44.424 85.605,40.731 87.046,40.731 85.956,47.144    "/><path d="M95.357,47.234c-0.398,0-0.682-0.09-0.852-0.257c-0.172-0.179-0.257-0.45-0.257-0.796     c0-0.09,0.01-0.179,0.019-0.258c0.01-0.089,0.028-0.191,0.038-0.308l0.735-4.104h1.146l-0.167,0.801h1.071l-0.18,1.015h-1.07     l-0.294,1.749c-0.019,0.114-0.038,0.23-0.057,0.358c-0.019,0.116-0.028,0.233-0.028,0.309c0,0.179,0.028,0.296,0.104,0.36     c0.067,0.064,0.181,0.103,0.332,0.103c0.057,0,0.133-0.014,0.227-0.039c0.095-0.038,0.181-0.064,0.237-0.103h0.095l-0.18,1.029     c-0.133,0.051-0.265,0.077-0.407,0.102C95.727,47.221,95.557,47.234,95.357,47.234L95.357,47.234z" fill="#FFFFFF"/><path d="M103.583,43.663c-0.251-0.193-0.808-0.154-0.924,0.242l-0.55,3.239h-1.145l0.824-4.832h1.145l-0.024,0.39     c0.219-0.219,0.46-0.404,1.074-0.385C104.023,42.319,103.612,43.036,103.583,43.663L103.583,43.663z" fill="#FFFFFF"/><path d="M105.748,47.273c-0.635,0-1.138-0.218-1.477-0.643c-0.351-0.423-0.522-1.04-0.522-1.838     c0-0.63,0.076-1.196,0.228-1.709c0.151-0.515,0.37-0.95,0.634-1.324c0.266-0.359,0.58-0.642,0.95-0.848     c0.357-0.206,0.747-0.309,1.154-0.309c0.322,0,0.626,0.052,0.91,0.142c0.137,0.047,0.402,0.172,0.402,0.172l-0.266,1.524     c-0.133-0.169-0.265-0.302-0.401-0.398c-0.199-0.128-0.437-0.206-0.702-0.206c-0.474,0-0.862,0.258-1.165,0.772     c-0.312,0.514-0.465,1.171-0.465,1.967c0,0.514,0.086,0.887,0.257,1.118c0.17,0.218,0.417,0.334,0.74,0.334     c0.293,0,0.567-0.079,0.824-0.231c0.121-0.08,0.239-0.164,0.356-0.259l-0.267,1.454c0,0-0.138,0.067-0.204,0.09     c-0.16,0.064-0.302,0.102-0.425,0.14C106.174,47.246,105.985,47.273,105.748,47.273L105.748,47.273z" fill="#FFFFFF"/><path d="M88.778,46.977c-0.047,0.039-0.095,0.065-0.133,0.09c-0.123,0.064-0.227,0.116-0.331,0.153     c-0.104,0.025-0.246,0.053-0.436,0.053c-0.294,0-0.54-0.116-0.72-0.334c-0.19-0.233-0.285-0.528-0.285-0.887     c0-0.385,0.066-0.707,0.199-0.976c0.133-0.259,0.331-0.477,0.597-0.631c0.246-0.153,0.54-0.257,0.872-0.321l0.236-0.039     c0.275-0.051,0.559-0.089,0.872-0.103c0-0.025,0-0.051,0.009-0.09c0.01-0.038,0.01-0.077,0.01-0.128     c0-0.205-0.067-0.347-0.209-0.437c-0.142-0.076-0.351-0.115-0.625-0.115h-0.057c-0.17,0.013-0.36,0.051-0.568,0.128     c-0.227,0.09-0.398,0.154-0.512,0.219h-0.104l0.171-1.144c0.133-0.051,0.341-0.103,0.616-0.154     c0.132-0.039,0.265-0.051,0.398-0.065c0.143-0.026,0.294-0.026,0.436-0.026c0.559,0,0.966,0.103,1.231,0.295     c0.265,0.193,0.389,0.502,0.389,0.926c0,0.052,0,0.128-0.01,0.219c-0.01,0.09-0.019,0.168-0.029,0.244l-0.558,3.29h-1.138     l0.086-0.515c-0.067,0.065-0.161,0.142-0.256,0.232C88.872,46.9,88.825,46.939,88.778,46.977L88.778,46.977z M88.778,44.973     c-0.123,0.026-0.227,0.064-0.313,0.103c-0.132,0.063-0.228,0.153-0.293,0.269c-0.076,0.116-0.105,0.27-0.105,0.463     c0,0.168,0.047,0.282,0.132,0.347c0.095,0.064,0.218,0.103,0.398,0.103c0.057,0,0.114-0.013,0.18-0.039     c0.057-0.012,0.114-0.038,0.181-0.064c0.123-0.077,0.246-0.168,0.36-0.27l0.17-1.028c-0.199,0.026-0.398,0.052-0.568,0.09     C88.872,44.947,88.825,44.96,88.778,44.973L88.778,44.973z" fill="#FFFFFF"/><path d="M98.687,43.147c-0.151,0.026-0.293,0.103-0.407,0.231c-0.161,0.181-0.285,0.412-0.37,0.721h0.776h0.768     c0-0.051,0.01-0.09,0.01-0.142c0-0.038,0.009-0.09,0.009-0.127c0-0.233-0.057-0.399-0.162-0.529     c-0.104-0.114-0.245-0.179-0.445-0.179C98.811,43.122,98.745,43.134,98.687,43.147L98.687,43.147z M98.687,46.181h0.171     c0.246,0,0.483-0.051,0.711-0.168c0.218-0.116,0.417-0.244,0.577-0.385h0.133l-0.218,1.246c-0.218,0.13-0.455,0.232-0.701,0.297     c-0.209,0.064-0.436,0.09-0.673,0.103h-0.104c-0.616,0-1.081-0.18-1.412-0.553c-0.331-0.36-0.493-0.861-0.493-1.503     c0-0.437,0.057-0.848,0.162-1.209c0.104-0.372,0.265-0.694,0.464-0.977c0.199-0.269,0.436-0.475,0.729-0.642     c0.209-0.103,0.427-0.18,0.654-0.219c0.104-0.012,0.208-0.012,0.313-0.012c0.531,0,0.929,0.14,1.204,0.436     c0.265,0.283,0.398,0.72,0.398,1.286c0,0.193-0.01,0.386-0.038,0.579c-0.029,0.179-0.067,0.372-0.114,0.552h-1.763h-0.89v0.051     v0.051c0,0.334,0.095,0.592,0.265,0.784C98.205,46.052,98.412,46.155,98.687,46.181L98.687,46.181z" fill="#FFFFFF"/><path d="M109.425,46.977c-0.047,0.039-0.095,0.065-0.142,0.09c-0.113,0.064-0.227,0.116-0.331,0.153     c-0.105,0.025-0.248,0.053-0.427,0.053c-0.304,0-0.54-0.116-0.729-0.334c-0.19-0.233-0.276-0.528-0.276-0.887     c0-0.385,0.066-0.707,0.2-0.976c0.132-0.259,0.331-0.477,0.588-0.631c0.245-0.153,0.54-0.257,0.88-0.321     c0.076-0.014,0.152-0.026,0.236-0.039c0.266-0.051,0.56-0.089,0.864-0.103c0.009-0.025,0.009-0.051,0.018-0.09     c0-0.038,0.01-0.077,0.01-0.128c0-0.205-0.075-0.347-0.21-0.437c-0.142-0.076-0.35-0.115-0.624-0.115h-0.058     c-0.179,0.013-0.368,0.051-0.567,0.128c-0.228,0.09-0.399,0.154-0.512,0.219h-0.104l0.162-1.144     c0.133-0.051,0.34-0.103,0.625-0.154c0.133-0.039,0.264-0.051,0.397-0.065c0.144-0.026,0.284-0.026,0.437-0.026     c0.56,0,0.966,0.103,1.233,0.295c0.255,0.193,0.388,0.502,0.388,0.926c0,0.052,0,0.128-0.009,0.219     c-0.01,0.09-0.019,0.168-0.03,0.244l-0.558,3.29h-1.138l0.088-0.515c-0.077,0.065-0.162,0.142-0.265,0.232L109.425,46.977     L109.425,46.977z M109.425,44.973c-0.122,0.026-0.226,0.064-0.321,0.103c-0.122,0.063-0.228,0.153-0.293,0.269     c-0.068,0.116-0.106,0.27-0.106,0.463c0,0.168,0.048,0.282,0.143,0.347c0.085,0.064,0.218,0.103,0.389,0.103     c0.056,0,0.124-0.013,0.188-0.039c0.058-0.012,0.115-0.038,0.17-0.064c0.133-0.077,0.246-0.168,0.361-0.27l0.179-1.028     c-0.208,0.026-0.398,0.052-0.578,0.09C109.511,44.947,109.464,44.96,109.425,44.973L109.425,44.973z" fill="#FFFFFF"/><path d="M114.261,43.663c-0.251-0.193-0.808-0.154-0.924,0.242l-0.549,3.239h-1.146l0.824-4.832h1.145     l-0.024,0.39c0.217-0.219,0.46-0.404,1.076-0.385C114.702,42.319,114.291,43.036,114.261,43.663L114.261,43.663z" fill="#FFFFFF"/><path clip-rule="evenodd" d="M116.513,43.34c-0.057,0.026-0.113,0.065-0.161,0.103     c-0.153,0.102-0.275,0.258-0.379,0.437c-0.086,0.179-0.162,0.386-0.208,0.655c-0.058,0.257-0.086,0.515-0.086,0.758     c0,0.296,0.057,0.501,0.15,0.629c0.106,0.142,0.257,0.207,0.456,0.207c0.077,0,0.153-0.014,0.228-0.052     c0.038-0.013,0.067-0.025,0.105-0.051c0.113-0.065,0.217-0.13,0.322-0.219l0.407-2.377c-0.066-0.039-0.142-0.079-0.245-0.104     c-0.096-0.038-0.18-0.05-0.257-0.05C116.721,43.276,116.617,43.301,116.513,43.34L116.513,43.34z M116.513,46.888     c-0.086,0.077-0.181,0.153-0.285,0.218c-0.094,0.051-0.189,0.102-0.274,0.128c-0.096,0.026-0.21,0.039-0.332,0.039     c-0.351,0-0.626-0.155-0.835-0.451c-0.199-0.308-0.303-0.745-0.303-1.298c0-0.463,0.047-0.9,0.162-1.298     c0.104-0.397,0.255-0.758,0.446-1.065c0.19-0.309,0.407-0.542,0.662-0.721c0.248-0.168,0.494-0.257,0.759-0.27h0.038     c0.198,0,0.37,0.026,0.512,0.077c0.142,0.051,0.294,0.142,0.445,0.258l0.255-1.685h1.146l-1.05,6.325h-1.146l0.084-0.501     C116.693,46.732,116.597,46.811,116.513,46.888L116.513,46.888z" fill="#FFFFFF" fill-rule="evenodd"/></g></g></g></svg>